<?xml version="1.0" encoding="utf-8"?>
<!-- Generator: Adobe Illustrator 26.0.3, SVG Export Plug-In . SVG Version: 6.00 Build 0)  -->
<svg version="1.1" xmlns="http://www.w3.org/2000/svg" xmlns:xlink="http://www.w3.org/1999/xlink" x="0px" y="0px"
	 viewBox="0 0 34 34" style="enable-background:new 0 0 34 34;" xml:space="preserve">
<style type="text/css">
	.st0{fill:#FFFFFF;}
	.st1{fill:#F2F2F2;}
</style>
<g id="Guides">
</g>
<g id="Layer_1">
	<rect x="-0.04" y="0" class="st0" width="34" height="34"/>
	<g>
		<path d="M24.03,20.01c0.18-0.07,0.34-0.19,0.45-0.37c0.63-0.95,1.1-2.01,1.41-3.13c0.15-0.53-0.17-1.08-0.7-1.23
			c-0.53-0.14-1.08,0.17-1.23,0.7c-0.25,0.91-0.63,1.77-1.15,2.55c-0.05,0.07-0.06,0.15-0.09,0.22l-8.87-8.45v11.53
			c-0.01,0-0.02-0.01-0.03-0.02c-0.9-0.25-1.74-0.63-2.5-1.15c-0.46-0.31-1.08-0.19-1.39,0.26c-0.31,0.46-0.2,1.08,0.26,1.39
			c0.94,0.65,1.99,1.13,3.12,1.44c0,0,0.03,0.01,0.04,0.01c0.08,0.02,0.15,0.03,0.23,0.03c0.09,0,0.18-0.02,0.27-0.05v6.53
			l5.85-6.51l8.42,0.14L24.03,20.01z"/>
		<path d="M18.18,5.84c0.94,0.3,1.79,0.7,2.53,1.19c0.17,0.11,0.36,0.17,0.55,0.17c0.32,0,0.64-0.16,0.83-0.45
			c0.31-0.46,0.18-1.08-0.28-1.39c-0.91-0.6-1.94-1.08-3.09-1.45c-0.03-0.01-0.06-0.02-0.09-0.02c-0.54-0.11-1.07,0.24-1.18,0.78
			C17.36,5.2,17.68,5.71,18.18,5.84z"/>
		<path d="M11.4,6.78c0.17,0,0.34-0.04,0.5-0.13c0.81-0.46,1.69-0.79,2.61-0.96c0.54-0.1,0.9-0.62,0.8-1.17
			c-0.1-0.54-0.62-0.9-1.17-0.8C13,3.94,11.91,4.33,10.9,4.91c-0.48,0.27-0.65,0.89-0.37,1.36C10.71,6.6,11.05,6.78,11.4,6.78z"/>
		<path d="M24.15,12.3c0.08,0.49,0.51,0.84,0.99,0.84c0.05,0,0.11,0,0.17-0.01c0.54-0.09,0.91-0.61,0.82-1.15
			c-0.19-1.16-0.58-2.26-1.16-3.26c-0.27-0.48-0.89-0.65-1.36-0.37c-0.48,0.27-0.65,0.89-0.37,1.36C23.69,10.49,24,11.37,24.15,12.3
			z"/>
		<path d="M7.53,8.01c-0.65,0.95-1.14,2-1.45,3.13l-0.01,0.03c-0.15,0.53,0.17,1.07,0.71,1.21c0.09,0.02,0.17,0.03,0.26,0.03
			c0.44,0,0.85-0.3,0.98-0.75c0.25-0.91,0.64-1.75,1.17-2.52c0.31-0.46,0.2-1.08-0.26-1.39C8.47,7.44,7.84,7.55,7.53,8.01z"/>
		<path d="M7.86,15.37c-0.1-0.54-0.62-0.9-1.17-0.8c-0.54,0.1-0.9,0.63-0.8,1.17c0.21,1.14,0.62,2.22,1.2,3.23
			c0.19,0.32,0.52,0.5,0.87,0.5c0.17,0,0.34-0.04,0.5-0.13c0.48-0.28,0.64-0.89,0.37-1.37C8.36,17.16,8.03,16.29,7.86,15.37z"/>
	</g>
</g>
</svg>
