<?xml version="1.0" encoding="utf-8"?>
<!-- Generator: Adobe Illustrator 26.0.3, SVG Export Plug-In . SVG Version: 6.00 Build 0)  -->
<svg version="1.1" xmlns="http://www.w3.org/2000/svg" xmlns:xlink="http://www.w3.org/1999/xlink" x="0px" y="0px"
	 viewBox="0 0 34 34" style="enable-background:new 0 0 34 34;" xml:space="preserve">
<style type="text/css">
	.st0{fill:#FFFFFF;}
	.st1{fill:#F2F2F2;}
</style>
<g id="Guides">
</g>
<g id="Layer_1">
	<rect x="0" y="0" class="st0" width="34" height="34"/>
	<g>
		<path d="M4.41,13.6l12.19,6.98c0.15,0.09,0.33,0.13,0.5,0.13c0.17,0,0.35-0.05,0.5-0.14l12-6.98c0.31-0.18,0.5-0.51,0.5-0.86
			c0-0.35-0.19-0.68-0.49-0.86l-12-7.1c-0.31-0.19-0.7-0.19-1.01,0L4.4,11.87c-0.31,0.18-0.5,0.51-0.5,0.87S4.1,13.43,4.41,13.6z
			 M17.09,6.79l10.03,5.94l-10.03,5.83L6.9,12.73L17.09,6.79z"/>
		<path d="M28.59,16.2l-11.5,6.69L5.4,16.19c-0.48-0.28-1.09-0.11-1.37,0.37c-0.27,0.48-0.11,1.09,0.37,1.36l12.19,6.98
			c0.15,0.09,0.33,0.13,0.5,0.13c0.17,0,0.35-0.05,0.5-0.14l12-6.98c0.48-0.28,0.64-0.89,0.36-1.37
			C29.68,16.08,29.07,15.92,28.59,16.2z"/>
		<path d="M28.59,20.53l-11.5,6.69L5.4,20.52c-0.48-0.27-1.09-0.11-1.37,0.37s-0.11,1.09,0.37,1.36l12.19,6.98
			c0.15,0.09,0.33,0.13,0.5,0.13c0.17,0,0.35-0.05,0.5-0.14l12-6.98c0.48-0.28,0.64-0.89,0.36-1.37S29.07,20.25,28.59,20.53z"/>
	</g>
</g>
</svg>
