<?xml version="1.0" encoding="utf-8"?>
<!-- Generator: Adobe Illustrator 26.0.3, SVG Export Plug-In . SVG Version: 6.00 Build 0)  -->
<svg version="1.1" xmlns="http://www.w3.org/2000/svg" xmlns:xlink="http://www.w3.org/1999/xlink" x="0px" y="0px"
	 viewBox="0 0 34 34" style="enable-background:new 0 0 34 34;" xml:space="preserve">
<style type="text/css">
	.st0{fill:#FFFFFF;}
	.st1{fill:#F2F2F2;}
</style>
<g id="Guides">
</g>
<g id="Layer_1">
	<rect x="0" y="0" class="st0" width="34" height="34"/>
	<path d="M17,4.67C10.2,4.67,4.67,10.2,4.67,17S10.2,29.33,17,29.33S29.33,23.8,29.33,17S23.8,4.67,17,4.67z M18,27.28v-5.06
		c0-0.55-0.45-1-1-1s-1,0.45-1,1v5.06C11.1,26.81,7.19,22.9,6.72,18h5.06c0.55,0,1-0.45,1-1s-0.45-1-1-1H6.72
		C7.19,11.1,11.1,7.19,16,6.72v5.06c0,0.55,0.45,1,1,1s1-0.45,1-1V6.72c4.9,0.47,8.81,4.38,9.28,9.28h-5.06c-0.55,0-1,0.45-1,1
		s0.45,1,1,1h5.06C26.81,22.9,22.9,26.81,18,27.28z"/>
</g>
</svg>
