<?xml version="1.0" encoding="utf-8"?>
<!-- Generator: Adobe Illustrator 26.3.1, SVG Export Plug-In . SVG Version: 6.00 Build 0)  -->
<svg version="1.1" xmlns="http://www.w3.org/2000/svg" xmlns:xlink="http://www.w3.org/1999/xlink" x="0px" y="0px"
	 viewBox="0 0 34 34" style="enable-background:new 0 0 34 34;" xml:space="preserve">
<style type="text/css">
	.st0{fill:#FFFFFF;}
	.st1{fill:#F2F2F2;}
</style>
<g id="Guides">
</g>
<g id="Layer_1">
	<rect x="0" y="0" class="st0" width="34" height="34"/>
	<g>
		<path d="M18.8,30.12c3.57,0,6.07-2.14,7.43-6.35c1.35-4.2,2.11-9.86,2.24-11.14l0.02-0.2c0.13-1.24,0.3-2.95-1.75-3.27
			c-0.7-0.11-1.3,0-1.77,0.35c-0.08,0.06-0.15,0.12-0.21,0.18c0.01-0.16,0.02-0.29,0.02-0.38c0.04-0.73,0.09-1.84-0.65-2.62
			c-0.43-0.45-1.02-0.68-1.75-0.68c-0.99,0-1.59,0.38-1.96,0.89c-0.01-0.71-0.1-1.72-0.83-2.41c-0.48-0.46-1.12-0.66-1.91-0.62
			c-0.87,0.05-1.38,0.43-1.66,0.75c-0.45,0.51-0.59,1.17-0.62,1.75c-0.02-0.02-0.03-0.03-0.05-0.05c-0.33-0.29-0.91-0.62-1.8-0.55
			c-0.77,0.06-1.34,0.32-1.72,0.79c-0.63,0.76-0.56,1.88-0.43,3.05c0.14,1.23,0.51,6.43,0.73,9.6c-0.7-0.64-1.4-1.26-1.7-1.49
			c-1.09-0.83-3.14-1.54-4.35-0.14c-1.23,1.43-0.37,2.31,0.54,3.25c0.23,0.24,0.52,0.53,0.85,0.89c0.82,0.89,1.56,1.91,2.27,2.89
			c0.68,0.93,1.32,1.81,1.95,2.46c1.08,1.13,3.45,3.02,7.1,3.03C18.78,30.12,18.79,30.12,18.8,30.12z M18.78,29.12L18.78,29.12
			L18.78,29.12z M26.55,11.17c0.03,0.21-0.02,0.7-0.06,1.07l-0.02,0.2c-0.12,1.24-0.85,6.69-2.15,10.73
			c-1.09,3.38-2.84,4.96-5.52,4.96c-0.01,0-0.01,0-0.02,0c-2.92-0.01-4.8-1.52-5.67-2.42c-0.53-0.56-1.14-1.38-1.77-2.26
			c-0.71-0.98-1.52-2.08-2.41-3.06c-0.35-0.38-0.64-0.68-0.89-0.94c-0.17-0.18-0.36-0.37-0.48-0.51c0.01-0.01,0.02-0.02,0.03-0.04
			c0.24-0.28,1.15,0.07,1.63,0.43c0.44,0.34,2.28,2.01,3.4,3.05c0.3,0.28,0.74,0.34,1.11,0.17c0.37-0.18,0.59-0.56,0.57-0.97
			c-0.03-0.42-0.7-10.35-0.91-12.18c-0.13-1.15-0.06-1.47-0.01-1.56c0,0,0,0,0,0c0.01,0,0.1-0.04,0.34-0.06
			c0.15-0.01,0.26,0.01,0.31,0.05c0.16,0.14,0.25,0.53,0.28,1.17c0.01,0.31,0.1,1.3,0.2,2.38c0.11,1.22,0.25,2.73,0.26,3.12
			c0.03,0.9,0.25,1.52,0.65,1.88c0.27,0.25,0.62,0.38,0.98,0.34c0.36-0.03,0.69-0.2,0.92-0.48c0.42-0.52,0.39-1.26,0.34-1.66
			c-0.02-0.24-0.08-2.27-0.12-3.75c-0.04-1.68-0.08-3.13-0.11-3.5l-0.01-0.16c-0.02-0.28-0.08-1.02,0.1-1.23
			c0.05-0.06,0.21-0.07,0.26-0.07c0.21-0.01,0.37,0.02,0.43,0.08c0.21,0.19,0.21,0.89,0.21,1.23c0,0.17,0,0.31,0.01,0.42
			c0.02,0.32,0.06,2.41,0.1,4.1c0.04,2.22,0.07,3.59,0.09,3.89c0.01,0.1,0.01,0.21,0.01,0.31c0.01,1.14,0.48,1.75,1.37,1.83
			c0.42,0.04,0.81-0.09,1.09-0.36c0.48-0.46,0.47-1.09,0.46-1.51l0-0.15c0-0.25,0.09-2.06,0.16-3.52c0.05-1.12,0.1-2.2,0.12-2.7
			l0-0.11c0.05-1.36,0.14-1.36,0.54-1.36c0.21,0,0.29,0.04,0.31,0.06c0.15,0.15,0.11,0.87,0.1,1.14c-0.05,0.96-0.42,6.54-0.51,7.27
			c-0.02,0.16-0.05,0.32-0.07,0.46c-0.09,0.49-0.2,1.11,0.21,1.61c0.14,0.17,0.47,0.46,1.04,0.46c0.62,0,1.38-0.28,1.47-1.63
			c0.01-0.09,0.01-0.18,0.03-0.26l0.09-0.49c0.18-0.97,0.56-2.99,0.75-4.26c0.16-1.02,0.32-1.2,0.35-1.23c0,0,0.01-0.01,0.09-0.01
			c0.04,0,0.11,0,0.19,0.02C26.48,11.15,26.52,11.16,26.55,11.17z"/>
	</g>
</g>
</svg>
