<?xml version="1.0" encoding="utf-8"?>
<!-- Generator: Adobe Illustrator 26.0.3, SVG Export Plug-In . SVG Version: 6.00 Build 0)  -->
<svg version="1.1" xmlns="http://www.w3.org/2000/svg" xmlns:xlink="http://www.w3.org/1999/xlink" x="0px" y="0px"
	 viewBox="0 0 34 34" style="enable-background:new 0 0 34 34;" xml:space="preserve">
<style type="text/css">
	.st0{fill:#FFFFFF;}
	.st1{fill:#F2F2F2;}
</style>
<g id="Guides">
</g>
<g id="Layer_1">
	<rect x="0" y="0" class="st0" width="34" height="34"/>
	<path d="M28.69,6.16h-2.77V5.33c0-0.55-0.45-1-1-1s-1,0.45-1,1v0.83H10.08V5.33c0-0.55-0.45-1-1-1s-1,0.45-1,1v0.83H5.31
		c-0.55,0-1,0.45-1,1v5.93v15.58c0,0.55,0.45,1,1,1h23.38c0.55,0,1-0.45,1-1V13.09V7.16C29.69,6.61,29.24,6.16,28.69,6.16z
		 M14.16,19.89v-5.8h5.69v5.8H14.16z M19.84,21.89v5.77h-5.69v-5.77H19.84z M6.31,14.09h5.84v5.8H6.31V14.09z M21.84,14.09h5.84v5.8
		h-5.84V14.09z M6.31,8.16h1.77v1.96c0,0.55,0.45,1,1,1s1-0.45,1-1V8.16h13.84v1.96c0,0.55,0.45,1,1,1s1-0.45,1-1V8.16h1.77v3.93
		H6.31V8.16z M6.31,21.89h5.84v5.77H6.31V21.89z M21.84,27.67v-5.77h5.84v5.77H21.84z"/>
</g>
</svg>
