<?xml version="1.0" encoding="utf-8"?>
<!-- Generator: Adobe Illustrator 26.0.3, SVG Export Plug-In . SVG Version: 6.00 Build 0)  -->
<svg version="1.1" xmlns="http://www.w3.org/2000/svg" xmlns:xlink="http://www.w3.org/1999/xlink" x="0px" y="0px"
	 viewBox="0 0 34 34" style="enable-background:new 0 0 34 34;" xml:space="preserve">
<style type="text/css">
	.st0{fill:#FFFFFF;}
	.st1{fill:#F2F2F2;}
</style>
<g id="Guides">
</g>
<g id="Layer_1">
	<rect x="0" y="0" class="st0" width="34" height="34"/>
	<g>
		<path d="M25.92,28.5h-5.47c-0.55,0-1-0.45-1-1v-6.73h-4.6v6.73c0,0.55-0.45,1-1,1H8.26c-0.55,0-1-0.45-1-1v-9.94H7.13
			c-0.41,0-0.77-0.25-0.93-0.62s-0.06-0.81,0.23-1.09l3.06-2.98V6.5c0-0.55,0.45-1,1-1h3.36c0.55,0,1,0.45,1,1v1.96l1.61-1.69
			c0.38-0.4,1.01-0.42,1.41-0.04l9.7,9.1c0.4,0.38,0.42,1.01,0.04,1.41c-0.18,0.19-0.43,0.3-0.67,0.31l-0.01,9.95
			C26.92,28.05,26.47,28.5,25.92,28.5z M21.45,26.5h3.47l0.01-10.4l-7.71-7.24l-2.65,2.79c-0.28,0.3-0.71,0.39-1.1,0.24
			c-0.38-0.15-0.63-0.52-0.63-0.93V7.5h-1.36v5.78c0,0.27-0.11,0.53-0.3,0.72L9.1,16.02c0.1,0.15,0.15,0.34,0.15,0.53v9.94h3.59
			v-6.73c0-0.55,0.45-1,1-1h6.6c0.55,0,1,0.45,1,1V26.5z"/>
	</g>
</g>
</svg>
