<?xml version="1.0" encoding="utf-8"?>
<!-- Generator: Adobe Illustrator 26.0.3, SVG Export Plug-In . SVG Version: 6.00 Build 0)  -->
<svg version="1.1" xmlns="http://www.w3.org/2000/svg" xmlns:xlink="http://www.w3.org/1999/xlink" x="0px" y="0px"
	 viewBox="0 0 34 34" style="enable-background:new 0 0 34 34;" xml:space="preserve">
<style type="text/css">
	.st0{fill:#FFFFFF;}
	.st1{fill:#F2F2F2;}
</style>
<g id="Guides">
</g>
<g id="Layer_1">
	<rect x="0" y="0" class="st0" width="34" height="34"/>
	<g>
		<path d="M24.93,8.49c0-0.05-0.48-5.42-7.92-5.42c-7.44,0-7.93,5.36-7.94,5.49v13.71c0,0.25,0.09,0.49,0.26,0.67l6.94,7.66
			c0.19,0.21,0.46,0.33,0.74,0.33c0,0,0.01,0,0.01,0c0.29,0,0.56-0.13,0.75-0.35l6.92-7.99c0.16-0.18,0.24-0.41,0.24-0.65
			L24.93,8.49z M22.93,21.57l-5.94,6.85l-5.92-6.54l0-13.24c0.01-0.15,0.42-3.58,5.94-3.58c5.52,0,5.91,3.43,5.92,3.49V21.57z"/>
		<path d="M17,8.15c-1.59,0-2.88,1.29-2.88,2.88S15.41,13.9,17,13.9c1.59,0,2.88-1.29,2.88-2.88S18.59,8.15,17,8.15z"/>
	</g>
</g>
</svg>
