<?xml version="1.0" encoding="utf-8"?>
<!-- Generator: Adobe Illustrator 26.0.3, SVG Export Plug-In . SVG Version: 6.00 Build 0)  -->
<svg version="1.1" xmlns="http://www.w3.org/2000/svg" xmlns:xlink="http://www.w3.org/1999/xlink" x="0px" y="0px"
	 viewBox="0 0 34 34" style="enable-background:new 0 0 34 34;" xml:space="preserve">
<style type="text/css">
	.st0{fill:#FFFFFF;}
	.st1{fill:#F2F2F2;}
</style>
<g id="Guides">
</g>
<g id="Layer_1">
	<rect x="0" y="0" class="st0" width="34" height="34"/>
	<g>
		<path d="M17,5.41c-6.67,0-12.09,5.42-12.09,12.09S10.33,29.59,17,29.59s12.09-5.42,12.09-12.09S23.67,5.41,17,5.41z M17,27.59
			c-5.57,0-10.09-4.53-10.09-10.09S11.43,7.41,17,7.41s10.09,4.53,10.09,10.09S22.57,27.59,17,27.59z"/>
		<path d="M16.84,22.34c-0.4,0-0.74,0.14-1.02,0.42c-0.28,0.28-0.42,0.61-0.42,1c0,0.4,0.14,0.74,0.42,1.02
			c0.28,0.28,0.62,0.42,1.02,0.42c0.39,0,0.72-0.14,1-0.42c0.28-0.28,0.42-0.62,0.42-1.02c0-0.39-0.14-0.72-0.42-1
			C17.56,22.48,17.23,22.34,16.84,22.34z"/>
		<path d="M19.18,11.35c-0.69-0.33-1.47-0.5-2.34-0.5c-1.11,0-2.04,0.26-2.81,0.79s-1.28,1.25-1.55,2.17l1.74,1.16
			c0.17-0.71,0.48-1.24,0.93-1.61c0.45-0.37,1.01-0.55,1.69-0.55c0.65,0,1.19,0.18,1.61,0.53c0.42,0.35,0.63,0.8,0.63,1.35
			c0,0.39-0.11,0.73-0.34,1.02c-0.23,0.29-0.61,0.61-1.16,0.96c-0.51,0.32-0.89,0.66-1.14,1.02c-0.25,0.36-0.43,0.77-0.52,1.23
			c-0.09,0.46-0.14,1.05-0.14,1.77h2.12c0-0.72,0.07-1.24,0.2-1.56c0.13-0.32,0.42-0.61,0.86-0.88c0.88-0.53,1.51-1.07,1.89-1.62
			c0.38-0.55,0.57-1.19,0.57-1.92s-0.2-1.39-0.6-1.98C20.42,12.14,19.88,11.68,19.18,11.35z"/>
	</g>
</g>
</svg>
