<?xml version="1.0" encoding="utf-8"?>
<!-- Generator: Adobe Illustrator 26.0.3, SVG Export Plug-In . SVG Version: 6.00 Build 0)  -->
<svg version="1.1" xmlns="http://www.w3.org/2000/svg" xmlns:xlink="http://www.w3.org/1999/xlink" x="0px" y="0px"
	 viewBox="0 0 34 34" style="enable-background:new 0 0 34 34;" xml:space="preserve">
<style type="text/css">
	.st0{fill:#FFFFFF;}
	.st1{fill:#F2F2F2;}
</style>
<g id="Guides">
</g>
<g id="Layer_1">
	<rect x="0" y="0" class="st0" width="34" height="34"/>
	<g>
		<path d="M15.39,18.58c-0.39-0.39-1.02-0.39-1.41,0l-5.88,5.88v-5.18c0-0.55-0.45-1-1-1s-1,0.45-1,1v7.36
			c-0.1,0.34-0.03,0.73,0.24,1c0.01,0.01,0.02,0.01,0.03,0.02c0.18,0.2,0.44,0.33,0.73,0.33h7.59c0.55,0,1-0.45,1-1s-0.45-1-1-1H9.4
			l6-6C15.78,19.6,15.78,18.97,15.39,18.58z"/>
		<path d="M15.68,7.01c0-0.55-0.45-1-1-1H7.09c-0.29,0-0.55,0.13-0.73,0.33C6.35,6.35,6.34,6.35,6.33,6.36
			c-0.27,0.27-0.34,0.66-0.24,1v7.36c0,0.55,0.45,1,1,1s1-0.45,1-1V9.54l5.88,5.88c0.2,0.2,0.45,0.29,0.71,0.29s0.51-0.1,0.71-0.29
			c0.39-0.39,0.39-1.02,0-1.41l-6-6h5.29C15.24,8.01,15.68,7.56,15.68,7.01z"/>
		<path d="M27.91,19.29c0-0.55-0.45-1-1-1s-1,0.45-1,1v5.18l-5.88-5.88c-0.39-0.39-1.02-0.39-1.41,0s-0.39,1.02,0,1.41l6,6h-5.29
			c-0.55,0-1,0.45-1,1s0.45,1,1,1h7.59c0.29,0,0.55-0.13,0.73-0.33c0.01-0.01,0.02-0.01,0.03-0.02c0.27-0.27,0.34-0.66,0.24-1V19.29
			z"/>
		<path d="M18.61,15.42c0.2,0.2,0.45,0.29,0.71,0.29s0.51-0.1,0.71-0.29l5.88-5.88v5.18c0,0.55,0.45,1,1,1s1-0.45,1-1V7.36
			c0.1-0.34,0.03-0.73-0.24-1c-0.01-0.01-0.02-0.01-0.03-0.02c-0.18-0.2-0.44-0.33-0.73-0.33h-7.59c-0.55,0-1,0.45-1,1s0.45,1,1,1
			h5.29l-6,6C18.22,14.4,18.22,15.03,18.61,15.42z"/>
	</g>
</g>
</svg>
