<?xml version="1.0" encoding="utf-8"?>
<!-- Generator: Adobe Illustrator 26.0.3, SVG Export Plug-In . SVG Version: 6.00 Build 0)  -->
<svg version="1.1" xmlns="http://www.w3.org/2000/svg" xmlns:xlink="http://www.w3.org/1999/xlink" x="0px" y="0px"
	 viewBox="0 0 34 34" style="enable-background:new 0 0 34 34;" xml:space="preserve">
<style type="text/css">
	.st0{fill:#FFFFFF;}
	.st1{fill:#F2F2F2;}
</style>
<g id="Guides">
</g>
<g id="Layer_1">
	<rect x="0" y="0" class="st0" width="34" height="34"/>
	<path d="M28.9,27.46l-8.42-8.2c1.25-1.53,2-3.48,2-5.6c0-4.88-3.97-8.84-8.84-8.84S4.8,8.79,4.8,13.67s3.97,8.84,8.84,8.84
		c2.04,0,3.91-0.7,5.4-1.86l8.47,8.24c0.19,0.19,0.45,0.28,0.7,0.28c0.26,0,0.52-0.1,0.72-0.3C29.31,28.48,29.3,27.85,28.9,27.46z
		 M6.8,13.67c0-3.77,3.07-6.84,6.84-6.84s6.84,3.07,6.84,6.84c0,3.77-3.07,6.84-6.84,6.84S6.8,17.44,6.8,13.67z"/>
</g>
</svg>
