<?xml version="1.0" encoding="utf-8"?>
<!-- Generator: Adobe Illustrator 26.0.3, SVG Export Plug-In . SVG Version: 6.00 Build 0)  -->
<svg version="1.1" xmlns="http://www.w3.org/2000/svg" xmlns:xlink="http://www.w3.org/1999/xlink" x="0px" y="0px"
	 viewBox="0 0 34 34" style="enable-background:new 0 0 34 34;" xml:space="preserve">
<style type="text/css">
	.st0{fill:#FFFFFF;}
	.st1{fill:#F2F2F2;}
</style>
<g id="Guides">
</g>
<g id="Layer_1">
	<rect x="0" y="0" class="st0" width="34" height="34"/>
	<g>
		<path d="M6.79,9.68H5.8c-0.55,0-1,0.45-1,1s0.45,1,1,1h0.99c0.55,0,1-0.45,1-1S7.35,9.68,6.79,9.68z"/>
		<path d="M11.05,11.68H28.2c0.55,0,1-0.45,1-1s-0.45-1-1-1H11.05c-0.55,0-1,0.45-1,1S10.5,11.68,11.05,11.68z"/>
		<path d="M6.79,16H5.8c-0.55,0-1,0.45-1,1s0.45,1,1,1h0.99c0.55,0,1-0.45,1-1S7.35,16,6.79,16z"/>
		<path d="M28.2,16H11.05c-0.55,0-1,0.45-1,1s0.45,1,1,1H28.2c0.55,0,1-0.45,1-1S28.75,16,28.2,16z"/>
		<path d="M6.79,22.32H5.8c-0.55,0-1,0.45-1,1s0.45,1,1,1h0.99c0.55,0,1-0.45,1-1S7.35,22.32,6.79,22.32z"/>
		<path d="M28.2,22.32H11.05c-0.55,0-1,0.45-1,1s0.45,1,1,1H28.2c0.55,0,1-0.45,1-1S28.75,22.32,28.2,22.32z"/>
	</g>
</g>
</svg>
